<?xml version="1.0" standalone="no"?>
<!DOCTYPE svg PUBLIC "-//W3C//DTD SVG 20010904//EN"
 "http://www.w3.org/TR/2001/REC-SVG-20010904/DTD/svg10.dtd">
<svg version="1.0" xmlns="http://www.w3.org/2000/svg"
 width="128.000000pt" height="128.000000pt" viewBox="0 0 128.000000 128.000000"
 preserveAspectRatio="xMidYMid meet">
<metadata>
Created by potrace 1.14, written by Peter Selinger 2001-2017
</metadata>
<g transform="translate(0.000000,128.000000) scale(0.100000,-0.100000)"
fill="#000000" stroke="none">
<path d="M808 1254 c-9 -3 -19 -18 -23 -34 -3 -15 -13 -31 -21 -34 -10 -4 -13
-13 -8 -31 4 -18 1 -32 -11 -45 -10 -11 -15 -26 -11 -36 4 -9 0 -26 -8 -38 -7
-12 -13 -34 -13 -50 0 -16 -7 -33 -15 -37 -10 -5 -14 -18 -10 -34 2 -15 0 -25
-6 -23 -5 2 -21 -10 -36 -25 -19 -20 -32 -26 -46 -22 -15 5 -22 0 -30 -19 -5
-14 -15 -27 -22 -27 -7 -1 -17 -2 -23 -3 -5 0 -23 -13 -38 -27 -18 -17 -35
-25 -47 -22 -13 4 -20 0 -20 -10 0 -20 -45 -48 -65 -41 -11 5 -18 0 -22 -15
-3 -11 -8 -21 -12 -22 -3 0 -13 -2 -21 -4 -8 -1 -44 -5 -79 -8 -99 -10 -132
-40 -133 -125 0 -68 -7 -85 -29 -79 -28 8 -36 -11 -42 -103 -3 -47 -9 -99 -12
-116 -12 -55 21 -65 187 -55 12 1 19 13 23 43 3 24 8 52 10 63 2 11 4 25 4 31
1 12 101 15 101 2 0 -4 -4 -8 -9 -8 -19 0 -63 -50 -76 -86 -15 -46 -3 -109 28
-143 35 -38 81 -52 160 -50 89 2 139 26 165 80 17 33 19 55 13 116 -2 21 -53
74 -84 86 -26 11 2 13 177 13 l208 0 -39 -18 c-97 -46 -105 -195 -14 -255 40
-26 185 -30 231 -6 106 55 106 214 -1 265 -32 16 -30 16 59 15 51 0 96 3 101
9 9 9 22 220 23 374 1 63 -4 87 -30 145 -23 52 -32 92 -37 156 -5 78 -13 142
-18 145 -1 0 -22 14 -47 31 -44 29 -114 60 -155 69 -34 8 -159 13 -177 8z m63
-731 c1 -5 2 -25 3 -45 2 -36 1 -37 -28 -35 -17 2 -49 -1 -71 -6 -64 -14 -69
-14 -82 -1 -7 7 -21 10 -31 7 -14 -3 -21 2 -25 16 -6 26 11 36 73 44 107 15
135 19 139 23 7 7 21 4 22 -3z"/>
</g>
</svg>
